<svg width="11" height="8" viewBox="0 0 11 8" fill="none" xmlns="http://www.w3.org/2000/svg">
<path d="M10.4997 5.40982L6.2097 1.16982C6.11674 1.07609 6.00614 1.0017 5.88428 0.950931C5.76242 0.900162 5.63172 0.874023 5.4997 0.874023C5.36769 0.874023 5.23699 0.900162 5.11513 0.950931C4.99327 1.0017 4.88267 1.07609 4.7897 1.16982L0.549705 5.40982C0.455976 5.50278 0.381582 5.61339 0.330813 5.73524C0.280044 5.8571 0.253906 5.98781 0.253906 6.11982C0.253906 6.25183 0.280044 6.38254 0.330813 6.5044C0.381582 6.62626 0.455976 6.73686 0.549705 6.82982C0.737067 7.01607 0.990519 7.12061 1.2547 7.12061C1.51889 7.12061 1.77234 7.01607 1.9597 6.82982L5.4997 3.28982L9.0397 6.82982C9.22596 7.01457 9.47736 7.11872 9.7397 7.11982C9.87131 7.12058 10.0018 7.09536 10.1236 7.04559C10.2454 6.99583 10.3563 6.9225 10.4497 6.82982C10.5468 6.7402 10.6251 6.63224 10.6802 6.51216C10.7353 6.39209 10.7661 6.26228 10.7708 6.13025C10.7754 5.99821 10.7539 5.86656 10.7073 5.74291C10.6608 5.61926 10.5902 5.50605 10.4997 5.40982Z" fill="#AA1D35"/>
</svg>
