<svg width="43" height="43" viewBox="0 0 43 43" fill="none" xmlns="http://www.w3.org/2000/svg">
<circle cx="21.5" cy="21.5" r="21" stroke="#B8BABE"/>
<path d="M28.1199 30.4751H14.8801C13.8438 30.4751 13 29.6313 13 28.595V15.3503C13 14.314 13.8438 13.4702 14.8801 13.4702H28.1199C29.1561 13.4702 30 14.314 30 15.3503V28.5901C30.0049 29.6313 29.1611 30.4751 28.1199 30.4751ZM14.8801 14.5114C14.4163 14.5114 14.0412 14.8865 14.0412 15.3503V28.5901C14.0412 29.0539 14.4163 29.429 14.8801 29.429H28.1199C28.5837 29.429 28.9588 29.0539 28.9588 28.5901V15.3503C28.9588 14.8865 28.5837 14.5114 28.1199 14.5114H14.8801Z" fill="#D9D9D9"/>
<path d="M25.2973 16.2832C25.0753 16.2832 24.8976 16.1055 24.8976 15.8834V13.1102C24.8976 12.8881 25.0753 12.7104 25.2973 12.7104C25.5194 12.7104 25.697 12.8881 25.697 13.1102V15.8785C25.697 16.1006 25.5194 16.2832 25.2973 16.2832ZM17.6634 16.2832C17.4413 16.2832 17.2637 16.1055 17.2637 15.8834V13.1102C17.2637 12.8881 17.4413 12.7104 17.6634 12.7104C17.8854 12.7104 18.0631 12.8881 18.0631 13.1102V15.8785C18.068 16.1006 17.8854 16.2832 17.6634 16.2832ZM21.9812 25.2347C20.3232 25.2347 18.976 23.8875 18.976 22.2294C18.976 20.5714 20.3232 19.2242 21.9812 19.2242C22.7313 19.2242 23.4468 19.5006 23.9995 20.0039C24.0686 20.0631 24.0735 20.1717 24.0094 20.2358C23.9502 20.3049 23.8416 20.3099 23.7775 20.2457C23.284 19.7967 22.6474 19.5499 21.9812 19.5499C20.5058 19.5499 19.3066 20.749 19.3066 22.2245C19.3066 23.7 20.5058 24.8991 21.9812 24.8991C22.6474 24.8991 23.284 24.6524 23.7775 24.2033C23.8465 24.1441 23.9502 24.149 24.0094 24.2132C24.0686 24.2823 24.0637 24.3859 23.9995 24.4451C23.4468 24.9583 22.7313 25.2347 21.9812 25.2347Z" fill="#D9D9D9"/>
</svg>
