<svg width="43" height="43" viewBox="0 0 43 43" fill="none" xmlns="http://www.w3.org/2000/svg">
<path d="M15.334 27.3332C15.0673 27.3332 14.834 27.2332 14.634 27.0332C14.434 26.8332 14.334 26.5998 14.334 26.3332V17.6665C14.334 17.3998 14.434 17.1665 14.634 16.9665C14.834 16.7665 15.0673 16.6665 15.334 16.6665H26.6673C26.934 16.6665 27.1673 16.7665 27.3673 16.9665C27.5673 17.1665 27.6673 17.3998 27.6673 17.6665V26.3332C27.6673 26.5998 27.5673 26.8332 27.3673 27.0332C27.1673 27.2332 26.934 27.3332 26.6673 27.3332H15.334ZM21.0007 22.2998L26.6673 18.5832V17.6665L21.0007 21.2998L15.334 17.6665V18.5832L21.0007 22.2998Z" fill="#D9D9D9"/>
<circle cx="21.5" cy="21.5" r="21" stroke="#B8BABE"/>
</svg>
