<svg width="44" height="43" viewBox="0 0 44 43" fill="none" xmlns="http://www.w3.org/2000/svg">
<circle cx="22" cy="21.5" r="21" stroke="#B8BABE"/>
<path fill-rule="evenodd" clip-rule="evenodd" d="M17.6714 14.757C17.6714 15.7154 16.9416 16.491 15.8005 16.491C14.7038 16.491 13.974 15.7154 13.9966 14.757C13.974 13.752 14.7037 12.999 15.8223 12.999C16.9416 12.999 17.6495 13.752 17.6714 14.757ZM14.0884 29.0241V17.8608H17.5577V29.0234H14.0884V29.0241Z" fill="#D9D9D9"/>
<path fill-rule="evenodd" clip-rule="evenodd" d="M20.3417 21.424C20.3417 20.0316 20.2959 18.8445 20.25 17.8628H23.2635L23.4237 19.3922H23.4921C23.9488 18.6843 25.0899 17.6123 26.939 17.6123C29.2213 17.6123 30.9334 19.119 30.9334 22.4049V29.0261H27.464V22.8397C27.464 21.4007 26.9623 20.4197 25.7068 20.4197C24.7477 20.4197 24.1774 21.0817 23.9495 21.7204C23.8577 21.949 23.8126 22.268 23.8126 22.5884V29.0261H20.3431V21.424H20.3417Z" fill="#D9D9D9"/>
</svg>
