<svg width="10" height="15" viewBox="0 0 10 15" fill="none" xmlns="http://www.w3.org/2000/svg">
<path d="M4.99967 0.833496C2.41967 0.833496 0.333008 2.92016 0.333008 5.50016C0.333008 9.00016 4.99967 14.1668 4.99967 14.1668C4.99967 14.1668 9.66634 9.00016 9.66634 5.50016C9.66634 2.92016 7.57967 0.833496 4.99967 0.833496ZM1.66634 5.50016C1.66634 3.66016 3.15967 2.16683 4.99967 2.16683C6.83967 2.16683 8.33301 3.66016 8.33301 5.50016C8.33301 7.42016 6.41301 10.2935 4.99967 12.0868C3.61301 10.3068 1.66634 7.40016 1.66634 5.50016Z" fill="#AA1D35"/>
<path d="M4.99967 7.16683C5.92015 7.16683 6.66634 6.42064 6.66634 5.50016C6.66634 4.57969 5.92015 3.8335 4.99967 3.8335C4.0792 3.8335 3.33301 4.57969 3.33301 5.50016C3.33301 6.42064 4.0792 7.16683 4.99967 7.16683Z" fill="#AA1D35"/>
</svg>
