<svg width="87" height="22" viewBox="0 0 87 22" fill="none" xmlns="http://www.w3.org/2000/svg">
<path fill-rule="evenodd" clip-rule="evenodd" d="M2.7206e-07 1.838C2.7206e-07 1.35053 0.193646 0.883032 0.538338 0.53834C0.88303 0.193648 1.35053 2.45031e-06 1.838 2.45031e-06H20.16C20.4016 -0.000392101 20.6409 0.0468654 20.8641 0.139069C21.0874 0.231273 21.2903 0.366612 21.4612 0.537339C21.6322 0.708065 21.7677 0.910826 21.8602 1.13401C21.9526 1.3572 22.0001 1.59643 22 1.838V20.16C22.0003 20.4016 21.9529 20.6409 21.8606 20.8642C21.7683 21.0875 21.6328 21.2904 21.462 21.4613C21.2912 21.6322 21.0884 21.7678 20.8651 21.8602C20.6419 21.9526 20.4026 22.0001 20.161 22H1.838C1.59655 22 1.35746 21.9524 1.1344 21.86C0.911335 21.7676 0.708671 21.6321 0.537984 21.4613C0.367297 21.2905 0.231932 21.0878 0.139623 20.8647C0.0473133 20.6416 -0.000131096 20.4025 2.7206e-07 20.161V1.838ZM8.708 8.388H11.687V9.884C12.117 9.024 13.217 8.25 14.87 8.25C18.039 8.25 18.79 9.963 18.79 13.106V18.928H15.583V13.822C15.583 12.032 15.153 11.022 14.061 11.022C12.546 11.022 11.916 12.111 11.916 13.822V18.928H8.708V8.388ZM3.208 18.791H6.416V8.25H3.208V18.79V18.791ZM6.875 4.812C6.88105 5.08668 6.83217 5.35979 6.73124 5.61532C6.63031 5.87084 6.47935 6.10364 6.28723 6.30003C6.09511 6.49643 5.8657 6.65248 5.61245 6.75901C5.35921 6.86554 5.08724 6.92042 4.8125 6.92042C4.53776 6.92042 4.26579 6.86554 4.01255 6.75901C3.7593 6.65248 3.52989 6.49643 3.33777 6.30003C3.14565 6.10364 2.99469 5.87084 2.89376 5.61532C2.79283 5.35979 2.74395 5.08668 2.75 4.812C2.76187 4.27286 2.98439 3.75979 3.36989 3.38269C3.75539 3.00558 4.27322 2.79442 4.8125 2.79442C5.35178 2.79442 5.86961 3.00558 6.25511 3.38269C6.64061 3.75979 6.86313 4.27286 6.875 4.812Z" fill="#AA1D35"/>
<path d="M27.596 16H34.12V15.104H28.632V6.2H27.596V16ZM36.1341 7.026C36.5541 7.026 36.8621 6.704 36.8621 6.298C36.8621 5.92 36.5401 5.612 36.1341 5.612C35.7281 5.612 35.4061 5.934 35.4061 6.312C35.4061 6.704 35.7281 7.026 36.1341 7.026ZM35.6301 16H36.6241V8.636H35.6301V16ZM43.1419 8.58C41.8679 8.58 40.8739 9.098 40.3419 9.994V8.636H39.3899V16H40.3839V12.136C40.3839 10.456 41.3779 9.476 42.9599 9.476C44.3599 9.476 45.1719 10.274 45.1719 11.828V16H46.1659V11.73C46.1659 9.616 44.9339 8.58 43.1419 8.58ZM54.5625 16H55.7805L52.3365 11.646L55.4865 8.636H54.2545L49.8585 12.654V5.612H48.8645V16H49.8585V13.9L51.5945 12.304L54.5625 16ZM63.3979 12.318C63.3979 10.106 61.8999 8.58 59.8279 8.58C57.7559 8.58 56.2299 10.134 56.2299 12.318C56.2299 14.502 57.7979 16.07 60.0939 16.07C61.2559 16.07 62.2779 15.65 62.9359 14.866L62.3759 14.222C61.8159 14.866 61.0179 15.188 60.1219 15.188C58.5119 15.188 57.3359 14.166 57.2239 12.626H63.3839C63.3839 12.514 63.3979 12.402 63.3979 12.318ZM59.8279 9.434C61.2699 9.434 62.3199 10.442 62.4459 11.884H57.2239C57.3499 10.442 58.3999 9.434 59.8279 9.434ZM71.1472 5.612V10.036C70.5312 9.084 69.5232 8.58 68.3472 8.58C66.2472 8.58 64.6792 10.092 64.6792 12.318C64.6792 14.544 66.2472 16.07 68.3472 16.07C69.5652 16.07 70.5872 15.538 71.1892 14.544V16H72.1412V5.612H71.1472ZM68.4312 15.188C66.8632 15.188 65.6872 14.04 65.6872 12.318C65.6872 10.596 66.8632 9.448 68.4312 9.448C69.9852 9.448 71.1612 10.596 71.1612 12.318C71.1612 14.04 69.9852 15.188 68.4312 15.188ZM75.4134 7.026C75.8334 7.026 76.1414 6.704 76.1414 6.298C76.1414 5.92 75.8194 5.612 75.4134 5.612C75.0074 5.612 74.6854 5.934 74.6854 6.312C74.6854 6.704 75.0074 7.026 75.4134 7.026ZM74.9094 16H75.9034V8.636H74.9094V16ZM82.4212 8.58C81.1472 8.58 80.1532 9.098 79.6212 9.994V8.636H78.6692V16H79.6632V12.136C79.6632 10.456 80.6572 9.476 82.2392 9.476C83.6392 9.476 84.4512 10.274 84.4512 11.828V16H85.4452V11.73C85.4452 9.616 84.2132 8.58 82.4212 8.58Z" fill="#AA1D35"/>
</svg>
