<svg width="122" height="54" viewBox="0 0 122 54" fill="none" xmlns="http://www.w3.org/2000/svg">
<path d="M15.4673 34.6127C11.4379 34.6127 8.62627 32.1813 8.45312 29.0875H12.5377C12.6833 30.3491 13.8126 31.311 15.4359 31.311C17.0591 31.311 17.9071 30.559 17.9071 29.5991C17.9071 26.6256 8.83286 28.5169 8.83286 22.4231C8.83286 19.6595 11.2096 17.438 15.182 17.438C19.0659 17.438 21.4132 19.6309 21.6453 22.9407H17.7575C17.6414 21.6507 16.6557 20.7804 15.062 20.7804C13.5549 20.7804 12.7718 21.4102 12.7718 22.3701C12.7718 25.4027 21.6709 23.5114 21.787 29.6072C21.785 32.4503 19.3807 34.6127 15.4673 34.6127Z" fill="#AA1D35"/>
<path d="M33.7582 33.4427C32.5192 34.1665 31.1216 34.5489 29.6992 34.5534C26.9171 34.5534 24.802 32.9005 24.802 29.5683V22.0927H22.6299V18.9093H24.7942V14.4663H29.2289V18.9093H33.4611V22.1213H29.2368V28.7877C29.2368 30.139 29.7877 30.6791 30.7439 30.6485C31.3224 30.6485 32.0189 30.4447 32.8295 30.0493L33.7582 33.4427Z" fill="#AA1D35"/>
<path d="M44.911 32.4514C43.8682 33.8027 42.188 34.5547 40.0139 34.5547C36.6789 34.5547 34.6504 32.4514 34.6504 29.5105C34.6504 26.4779 36.7674 24.6763 40.5923 24.6457H44.8835V24.3461C44.8835 22.6341 43.7817 21.6436 41.6371 21.6436C40.2441 21.6436 38.6209 22.1226 36.9976 23.054L35.6105 19.8726C37.9302 18.6701 39.9391 18.0098 42.6543 18.0098C46.8293 18.0098 49.2356 20.1721 49.2632 23.804L49.2927 34.3448H44.911V32.4514ZM44.8835 28.8196V27.3787H41.3754C39.6656 27.3787 38.8176 27.9188 38.8176 29.213C38.8176 30.4358 39.7443 31.251 41.2514 31.251C43.1442 31.251 44.6218 30.1994 44.8835 28.8196Z" fill="#AA1D35"/>
<path d="M56.6795 17.558V18.9093H60.3608V22.1213H56.6795V34.3496H52.2448V22.1213H50.1592V18.9093H52.2448V17.3787C52.2448 13.7754 54.8537 11.8535 57.984 11.8535C59.4341 11.8535 60.9707 12.2448 62.0725 12.9948L60.4769 16.3576C59.9155 15.9221 59.2361 15.6804 58.5349 15.6667C57.4921 15.6667 56.6795 16.268 56.6795 17.558Z" fill="#AA1D35"/>
<path d="M63.7213 17.3796C63.7213 13.7111 66.3873 11.8544 69.4606 11.8544C70.4964 11.8482 71.5223 12.0626 72.4748 12.4842L72.3017 16.328C71.5922 15.9464 70.8103 15.7314 70.0115 15.6982C68.9392 15.6676 68.1561 16.2383 68.1561 17.5589V18.7818H71.8373V21.9734H68.1561V34.3444H63.7213V21.9734H61.6338V18.7899H63.7213V17.3796ZM73.4901 13.5949C73.4901 12.0949 74.5033 11.0127 75.8963 11.0127C77.2893 11.0127 78.3302 12.0949 78.3302 13.5949C78.3302 15.0949 77.3208 16.1771 75.8963 16.1771C74.4719 16.1771 73.4901 15.097 73.4901 13.5949ZM78.1275 18.1907V34.3444H73.6927V18.1907H78.1275Z" fill="#AA1D35"/>
<path d="M96.2477 24.1953V34.3448H91.7834V25.5465C91.7834 23.5084 90.6245 22.2428 88.7121 22.2428C86.4789 22.2734 85.1469 24.0159 85.1469 26.3862V34.3448H80.6826V18.1912H85.139V21.0118C86.2409 19.0003 88.0903 18.0403 90.5301 18.0098C94.0165 18.0098 96.2477 20.4126 96.2477 24.1953Z" fill="#AA1D35"/>
<path d="M113.55 32.8429C113.55 37.4367 110.217 40.3491 105.232 40.3491C102.816 40.3546 100.453 39.6122 98.4475 38.2173L100.1 34.9747C101.507 36.0335 103.201 36.6042 104.94 36.6052C107.498 36.6052 109.115 35.1948 109.115 33.0039V31.1696C108.073 32.6717 106.477 33.5114 104.419 33.5114C100.391 33.5114 97.6074 30.3891 97.6074 25.7056C97.6074 21.1404 100.332 18.0486 104.297 18.0486C106.414 18.0181 108.035 18.8883 109.11 20.3904V18.1913H113.544L113.55 32.8429ZM109.115 25.8136C109.115 23.3211 107.638 21.6091 105.464 21.6091C103.29 21.6091 101.81 23.3557 101.782 25.8136C101.81 28.2756 103.26 29.9855 105.464 29.9855C107.667 29.9855 109.115 28.2797 109.115 25.8136Z" fill="#AA1D35"/>
<path d="M66.2317 36.9392C66.479 36.9291 66.7249 36.982 66.9479 37.0932C67.1708 37.2044 67.3641 37.3706 67.5106 37.5771V37.0044H68.4944V41.0418C68.4944 42.1261 67.853 42.9882 66.5819 42.9882C65.4919 42.9882 64.7305 42.4236 64.6321 41.5045H65.6041C65.7005 41.8652 66.0645 42.1057 66.5524 42.1057C67.0915 42.1057 67.5106 41.7857 67.5106 41.0418V40.4304C67.365 40.6394 67.1725 40.8086 66.9497 40.9233C66.7269 41.038 66.4805 41.0947 66.2317 41.0887C65.2479 41.0887 64.4609 40.2551 64.4609 39.0038C64.4609 37.7524 65.2479 36.9392 66.2317 36.9392ZM66.4836 37.838C65.9602 37.838 65.4644 38.2456 65.4644 39.0017C65.4644 39.7578 65.9602 40.196 66.4836 40.196C67.0069 40.196 67.5106 39.7762 67.5106 39.018C67.5106 38.2599 67.0207 37.838 66.4836 37.838Z" fill="#AA1D35"/>
<path d="M70.4369 41.0133H69.4531V37.0044H70.4369V37.6342C70.5575 37.4223 70.7304 37.2475 70.9379 37.1278C71.1454 37.0082 71.38 36.948 71.6174 36.9535V38.0173H71.3734C70.793 38.0173 70.4448 38.2476 70.4448 39.0221L70.4369 41.0133Z" fill="#AA1D35"/>
<path d="M73.99 41.0787C72.8724 41.0787 72.0225 40.2635 72.0225 39.0101C72.0058 38.4633 72.1994 37.9321 72.5609 37.5333C72.9223 37.1344 73.4219 36.9007 73.9497 36.8834C74.4775 36.8661 74.9903 37.0667 75.3754 37.441C75.7604 37.8154 75.9861 38.3329 76.0028 38.8796C76.0028 38.9245 76.0028 38.9673 76.0028 39.0101C76.0067 40.2676 75.1135 41.0787 73.99 41.0787ZM73.99 40.1962C74.5055 40.1962 75.0013 39.8049 75.0013 39.0101C75.0013 38.2152 74.5193 37.8219 74.0038 37.8219C73.4883 37.8219 73.02 38.2071 73.02 39.0101C73.02 39.8131 73.4647 40.1962 73.99 40.1962Z" fill="#AA1D35"/>
<path d="M80.3795 41.0137H79.3957V40.5063C79.2587 40.6852 79.0834 40.8286 78.8836 40.9251C78.6838 41.0217 78.4651 41.0688 78.2447 41.0627C77.3436 41.0627 76.6943 40.4512 76.6943 39.3568V37.0049H77.6781V39.2121C77.6781 39.8561 78.0185 40.2026 78.5359 40.2026C79.0534 40.2026 79.4016 39.8561 79.4016 39.2121V37.0049H80.3854L80.3795 41.0137Z" fill="#AA1D35"/>
<path d="M83.5956 36.9392C84.5794 36.9392 85.3664 37.7422 85.3664 38.9936C85.3664 40.245 84.5912 41.0785 83.5956 41.0785C83.3495 41.0831 83.1057 41.0277 82.8839 40.9169C82.6621 40.8061 82.4686 40.643 82.3187 40.4406V42.9332H81.335V37.0228H82.3187V37.6016C82.464 37.3925 82.6561 37.223 82.8785 37.1077C83.1009 36.9923 83.347 36.9345 83.5956 36.9392ZM83.3379 37.836C82.8145 37.836 82.3187 38.2558 82.3187 39.016C82.3187 39.7762 82.8145 40.194 83.3379 40.194C83.8613 40.194 84.3649 39.7599 84.3649 38.9997C84.3649 38.2395 83.8691 37.838 83.3379 37.838V37.836Z" fill="#AA1D35"/>
<path d="M86.517 41.0625C86.361 41.0606 86.2121 40.9949 86.1028 40.8796C85.9935 40.7642 85.9327 40.6088 85.9336 40.4471C85.9345 40.2855 85.9971 40.1308 86.1077 40.0168C86.2183 39.9028 86.3679 39.8389 86.5239 39.8389C86.6798 39.8389 86.8294 39.9028 86.94 40.0168C87.0506 40.1308 87.1132 40.2855 87.1141 40.4471C87.115 40.6088 87.0542 40.7642 86.9449 40.8796C86.8356 40.9949 86.6867 41.0606 86.5307 41.0625H86.517Z" fill="#AA1D35"/>
<path d="M89.554 36.939C90.5181 36.939 91.1674 37.4607 91.376 38.3656H90.3233C90.2733 38.1961 90.1695 38.0491 90.0289 37.9481C89.8883 37.8472 89.7189 37.7983 89.5481 37.8092C89.0031 37.8092 88.6391 38.2352 88.6391 39.0178C88.6391 39.8004 89.0031 40.2182 89.5481 40.2182C89.7188 40.2333 89.8893 40.1868 90.0306 40.0865C90.1719 39.9861 90.2753 39.8383 90.3233 39.6679H91.376C91.1674 40.5219 90.5181 41.0946 89.554 41.0946C88.4365 41.0946 87.6416 40.2793 87.6416 39.0259C87.6416 37.7725 88.4365 36.939 89.554 36.939Z" fill="#AA1D35"/>
<path d="M93.8113 41.0787C92.6937 41.0787 91.8438 40.2635 91.8438 39.0101C91.8271 38.4633 92.0207 37.9321 92.3821 37.5333C92.7436 37.1344 93.2431 36.9007 93.771 36.8834C94.2988 36.8661 94.8116 37.0667 95.1966 37.441C95.5817 37.8154 95.8074 38.3329 95.8241 38.8796C95.8241 38.9245 95.8241 38.9673 95.8241 39.0101C95.8201 40.2676 94.9347 41.0787 93.8113 41.0787ZM93.8113 40.1962C94.3268 40.1962 94.8226 39.8049 94.8226 39.0101C94.8226 38.2152 94.3405 37.8219 93.8251 37.8219C93.3096 37.8219 92.8413 38.2071 92.8413 39.0101C92.8413 39.8131 93.286 40.1962 93.8113 40.1962Z" fill="#AA1D35"/>
</svg>
